<svg viewBox="0 0 437 437" fill="none" xmlns="http://www.w3.org/2000/svg">
<rect x="281.623" y="179.603" width="240" height="40" rx="10" transform="rotate(-155.5 281.623 179.603)" fill="#1ABC9C"/>
<rect x="331.386" y="70.408" width="100" height="40" rx="10" transform="rotate(114.5 331.386 70.408)" fill="#1ABC9C"/>
<rect x="258.277" y="103.027" width="100" height="40" rx="10" transform="rotate(-155.5 258.277 103.027)" fill="#34495E"/>
<path d="M26.0283 41.1431C32.8991 26.0663 50.6912 19.4142 65.7679 26.285C80.8446 33.1559 87.4968 50.9479 80.6259 66.0247C73.7551 81.1014 55.963 87.7536 40.8863 80.8827C25.8096 74.0118 19.1574 56.2198 26.0283 41.1431Z" stroke="#1ABC9C" stroke-width="20"/>
<rect x="179.603" y="155.089" width="240" height="40" rx="10" transform="rotate(114.5 179.603 155.089)" fill="#34495E"/>
<rect x="70.408" y="105.326" width="100" height="40" rx="10" transform="rotate(24.5 70.408 105.326)" fill="#34495E"/>
<rect x="103.027" y="178.435" width="100" height="40" rx="10" transform="rotate(114.5 103.027 178.435)" fill="#1ABC9C"/>
<path d="M41.1431 410.684C26.0663 403.813 19.4142 386.021 26.285 370.944C33.1559 355.868 50.9479 349.215 66.0247 356.086C81.1014 362.957 87.7536 380.749 80.8827 395.826C74.0118 410.903 56.2198 417.555 41.1431 410.684Z" stroke="#34495E" stroke-width="20"/>
<rect x="155.089" y="257.109" width="240" height="40" rx="10" transform="rotate(24.5 155.089 257.109)" fill="#1ABC9C"/>
<rect x="105.326" y="366.304" width="100" height="40" rx="10" transform="rotate(-65.5 105.326 366.304)" fill="#1ABC9C"/>
<rect x="178.435" y="333.685" width="100" height="40" rx="10" transform="rotate(24.5 178.435 333.685)" fill="#34495E"/>
<path d="M410.684 395.569C403.813 410.646 386.021 417.298 370.944 410.427C355.868 403.556 349.215 385.764 356.086 370.688C362.957 355.611 380.749 348.959 395.826 355.83C410.903 362.7 417.555 380.492 410.684 395.569Z" stroke="#1ABC9C" stroke-width="20"/>
<rect x="257.109" y="281.623" width="240" height="40" rx="10" transform="rotate(-65.5 257.109 281.623)" fill="#34495E"/>
<rect x="366.304" y="331.386" width="100" height="40" rx="10" transform="rotate(-155.5 366.304 331.386)" fill="#34495E"/>
<rect x="333.685" y="258.277" width="100" height="40" rx="10" transform="rotate(-65.5 333.685 258.277)" fill="#1ABC9C"/>
<path d="M395.569 26.0283C410.646 32.8992 417.298 50.6912 410.427 65.768C403.556 80.8447 385.764 87.4969 370.688 80.626C355.611 73.7551 348.959 55.9631 355.83 40.8864C362.7 25.8096 380.492 19.1575 395.569 26.0283Z" stroke="#34495E" stroke-width="20"/>
</svg>
